<svg xmlns="http://www.w3.org/2000/svg" fill="none" overflow="visible" preserveAspectRatio="none" style="display:block" viewBox="0 0 28 28"><g clip-path="url(#a)"><path fill="var(--fill-0, white)" fill-opacity=".49" d="M14 28C6.269 28 0 21.732 0 14 0 6.269 6.269 0 14 0c7.732 0 14 6.269 14 14 0 7.732-6.268 14-14 14m0-15.65L8.22 6.568a1.163 1.163 0 0 0-1.645.006A1.16 1.16 0 0 0 6.57 8.22L12.35 14l-5.782 5.78a1.163 1.163 0 0 0 .006 1.645 1.16 1.16 0 0 0 1.645.005L14 15.65l5.78 5.78a1.163 1.163 0 0 0 1.645-.005 1.16 1.16 0 0 0 .005-1.645L15.65 14l5.78-5.78a1.163 1.163 0 0 0-.005-1.645 1.16 1.16 0 0 0-1.645-.006z"/></g><defs><clipPath id="a"><path fill="#fff" d="M0 0h28v28H0z"/></clipPath></defs></svg>