<svg xmlns="http://www.w3.org/2000/svg" fill="none" overflow="visible" preserveAspectRatio="none" style="display:block" viewBox="0 0 32 32"><path fill="var(--fill-0, #f48934)" d="m21.592 5.94 1.022-1.364a2.27 2.27 0 0 1 3.169-.465 2.27 2.27 0 0 1 .464 3.168l-1.226 1.687s-2.023-1.255-3.43-3.026"/><path fill="var(--fill-0, #f7b458)" d="m21.592 5.94 1.022-1.364a2.27 2.27 0 0 1 3.169-.465c.999.743.939 1.573.195 2.572L24.752 8.37s-1.754-.66-3.16-2.43" opacity=".77"/><path fill="var(--fill-0, white)" d="m21.592 5.94 1.022-1.364a2.27 2.27 0 0 1 3.169-.465c.999.743-.246.574-.99 1.574l-1.285 1.622s-.51.404-1.916-1.367" opacity=".63"/><path fill="var(--fill-0, #f8be59)" d="m19.343 29.322 1.674-1.148c.551-.836 1.272-2.459 1.968-3.18l3.137-3.201c3.799-4.533 3.198-11.35-1.334-15.149-4.534-3.799-11.35-3.198-15.15 1.335l-3.53 4.606q-.351.476-.77.892l-1.035 1.524z"/><path fill="var(--fill-0, #ffcf48)" d="m4.285 16.597-.157-1.811c.714-.701 1.938-2.031 2.534-2.835l2.983-3.935C15.923.929 23.45 5.688 23.45 5.688s-3.931-.17-7.549.995c-6.39 2.059-7.711 5.663-8.052 6.274l-2.834 4.22z" opacity=".68"/><path fill="var(--fill-0, #f49a5d)" d="m19.4 29.361 1.674-1.148c.552-.836 1.272-2.459 1.968-3.18l3.387-3.595c5.751-8.464-1.584-14.755-1.584-14.755l-.593 5.85a9 9 0 0 1-.282 1.51c-.55 2.008-1.261 4.254-2.278 6.083a5.1 5.1 0 0 1-1.375 1.578l-3.508 2.669z" opacity=".25"/><path fill="var(--fill-0, #fcd297)" d="m19.4 29.361 1.674-1.148c.552-.836 1.272-2.459 1.968-3.18l3.387-3.595c3.676-4.954 1.657-9.784 1.657-9.784s.524 3.687-.977 6.965c-1.868 4.08-5.48 6.729-6.04 7.155l-4.26-1.4z" opacity=".77"/><path fill="var(--fill-0, #fcd5a7)" d="M17.11 16.044c5.275 4.69 6.3 9.278 3.874 12.172S13.1 30.01 8.533 26.18c-4.566-3.828-6.51-8.935-4.085-11.829 2.426-2.893 7.685-2.73 12.661 1.692"/><path fill="var(--fill-0, #f9bd7d)" d="M8.53 26.133a18 18 0 0 0 3.467 2.291c1.204.603 2.408 1.017 3.545 1.22s2.185.19 3.083-.037 1.63-.665 2.153-1.289c.522-.623.826-1.42.893-2.344s-.103-1.958-.5-3.042c-.4-1.084-1.017-2.198-1.82-3.278a18 18 0 0 0-2.861-3.014 18 18 0 0 0-3.467-2.291c-1.203-.603-2.408-1.018-3.545-1.22-1.137-.203-2.185-.19-3.083.037s-1.63.665-2.153 1.288c-.522.624-.826 1.42-.893 2.344-.068.925.103 1.958.501 3.043.398 1.084 1.016 2.198 1.82 3.278a18 18 0 0 0 2.86 3.014"/><path fill="var(--fill-0, #f2942f)" d="M16.47 16.711c4.52 3.789 6.534 8.827 4.5 11.252s-7.612 1.517-12.13-2.272c-4.52-3.788-6.267-9.022-4.234-11.448 2.033-2.425 7.346-1.32 11.864 2.468"/><path fill="var(--fill-0, #f26330)" d="M16.458 16.632c4.322 3.624 6.303 8.378 4.424 10.619-1.88 2.241-7.35 1.415-11.672-2.208S3.35 16.37 5.23 14.129c1.88-2.242 6.906-1.12 11.228 2.503" opacity=".4"/><path fill="var(--fill-0, #f75b2b)" d="M16.45 16.551c3.926 3.292 5.692 7.65 3.945 9.735s-6.665 1.382-10.592-1.91-5.375-7.928-3.628-10.012 6.347-1.105 10.274 2.187" opacity=".6"/><path fill="var(--fill-0, #ea481c)" d="M16.407 16.642c3.506 2.94 5.084 6.831 3.523 8.693-1.56 1.86-6.01 1.258-9.516-1.682S5.672 16.55 7.233 14.69s5.667-.987 9.174 1.953" opacity=".48"/><path fill="var(--fill-0, #ea481c)" d="M16.521 16.65c2.956 2.478 4.285 5.758 2.97 7.327s-5.01.969-7.965-1.51c-2.956-2.477-4.052-5.894-2.737-7.463s4.777-.831 7.732 1.647" opacity=".68"/><path fill="var(--fill-0, #f48934)" d="m18.948 19.132-1.397 1.862a3.1 3.1 0 0 1-4.326.635 3.1 3.1 0 0 1-.635-4.326L14.264 15s2.763 1.714 4.684 4.132"/><path fill="var(--fill-0, #f75b2b)" d="M13.593 21.852s2.026 1.283 3.958-.858l1.397-1.863s-1.106-1.415-1.828-1.915c-.723-.5-4.45 3.964-3.528 4.636" opacity=".35"/><path fill="var(--fill-0, #ffb27d)" d="M13.225 21.63s2.304 1.734 4.326-.636l1.397-1.862s-.268-.327-.756.274c-.59.726-1.85 3.321-4.906 2.062 0 0-.126.022-.115.12z" opacity=".47"/><path fill="var(--fill-0, #fccba9)" d="m14.264 15-1.674 2.303a3.09 3.09 0 0 0-.562 2.378s.073.343.125.483.146.7.146-.794c0-1.029.386-1.783 1.056-2.554 1.542-1.774.91-1.816.91-1.816" opacity=".38"/><path fill="var(--fill-0, #cc3a00)" d="M12.935 21.19c-.44-.959-.08-2.057.075-2.5a.226.226 0 0 1 .305-.132h-.002a.25.25 0 0 1 .135.307c-.155.456-.446 1.563-.046 2.54.007.016-.008.318-.024.325l-.093-.059c-.259-.171-.252-.267-.35-.481"/><path fill="var(--fill-0, white)" d="M11.423 8.524c0 1.176.682 2.303 1.896 3.135 1.214.83 2.86 1.298 4.577 1.298s3.363-.467 4.577-1.299c1.214-.83 1.896-1.958 1.896-3.134s-.682-2.303-1.896-3.134c-1.213-.832-2.86-1.299-4.577-1.299-1.716 0-3.363.467-4.577 1.299-1.214.83-1.896 1.958-1.896 3.134" opacity=".17"/><path fill="var(--fill-0, white)" d="M13.073 12.712a1.25 1.25 0 0 1-.155-1.76l3.763-4.488a1.249 1.249 0 0 1 1.914 1.604l-3.764 4.49a1.25 1.25 0 0 1-1.758.154" opacity=".62"/><path fill="var(--fill-0, #bc3100)" d="M12.626 18.933a.554.554 0 1 0 1.108 0 .554.554 0 0 0-1.108 0"/></svg>