<svg xmlns="http://www.w3.org/2000/svg" viewBox="0 0 900 600"><path fill="#fff" d="M0 0h900v600H0z"/><circle cx="450" cy="300" r="150" fill="#c60c30"/><circle cx="450" cy="300" r="150" fill="#c60c30"/><path fill="#003478" d="M450 150a75 75 0 0 1 0 150 75 75 0 0 0 0 150 150 150 0 0 1 0-300"/><g stroke="#000" stroke-width="25"><path d="m282.452 464.717 55.484-83.195M322.386 491.35l55.484-83.196M362.32 517.982l55.484-83.195M482.196 165.213l55.484-83.195M522.13 191.846l55.484-83.195M562.064 218.478l55.484-83.195M362.32 82.018l55.484 83.195M322.386 108.65l55.484 83.196M282.452 135.283l55.484 83.195M562.064 381.522l55.484 83.195M522.13 408.154l55.484 83.195M482.196 434.787l55.484 83.195"/></g></svg>