<svg xmlns="http://www.w3.org/2000/svg" viewBox="0 0 640 480"><path fill="#cc0001" d="M0 0h640v480H0z"/><path fill="#fff" d="M0 34.3h640v34.3H0z"/><path fill="#cc0001" d="M0 68.6h640v34.3H0z"/><path fill="#fff" d="M0 102.9h640v34.3H0z"/><path fill="#cc0001" d="M0 137.1h640v34.3H0z"/><path fill="#fff" d="M0 171.4h640v34.3H0z"/><path fill="#cc0001" d="M0 205.7h640V240H0z"/><path fill="#fff" d="M0 240h640v34.3H0z"/><path fill="#cc0001" d="M0 274.3h640v34.3H0z"/><path fill="#fff" d="M0 308.6h640v34.3H0z"/><path fill="#cc0001" d="M0 342.9h640v34.3H0z"/><path fill="#fff" d="M0 377.1h640v34.3H0z"/><path fill="#cc0001" d="M0 411.4h640v34.3H0z"/><path fill="#fff" d="M0 445.7h640V480H0z"/><path fill="#010066" d="M0 0h320v240H0z"/><circle cx="160" cy="120" r="60" fill="#fc0"/><circle cx="175" cy="120" r="50" fill="#010066"/><path fill="#fc0" d="m195 50 7 21h21l-17 12 7 21-18-12-18 12 7-21-17-12h21z"/></svg>