<svg xmlns="http://www.w3.org/2000/svg" viewBox="0 0 900 600"><path fill="#de2910" d="M0 0h900v600H0z"/><g fill="none" stroke="#fff" stroke-width="5" transform="translate(450 300)"><path fill="#fff" d="M0-95C-30-60-30-30 0 0c30-30 30-60 0-95Z"/><path stroke="#de2910" stroke-width="2" d="M0 0v-80"/><path fill="#fff" d="M90.35-29.357C47.793-47.073 19.261-37.802 0 0c37.802 19.261 66.334 9.99 90.35-29.357Z"/><path stroke="#de2910" stroke-width="2" d="m0 0 76.085-24.721"/><path fill="#fff" d="M55.84 76.857C59.538 30.907 41.904 6.637 0 0c-6.637 41.904 10.997 66.175 55.84 76.857Z"/><path stroke="#de2910" stroke-width="2" d="m0 0 47.023 64.721"/><path fill="#fff" d="M-55.84 76.857C-10.997 66.175 6.637 41.904 0 0c-41.904 6.637-59.538 30.907-55.84 76.857Z"/><path stroke="#de2910" stroke-width="2" d="m0 0-47.023 64.721"/><path fill="#fff" d="M-90.35-29.357C-66.334 9.991-37.802 19.261 0 0c-19.261-37.802-47.793-47.073-90.35-29.357Z"/><path stroke="#de2910" stroke-width="2" d="m0 0-76.085-24.721"/><circle r="12" fill="#fff" stroke="none"/></g></svg>