<svg xmlns="http://www.w3.org/2000/svg" width="36" height="36" viewBox="0 0 36 36" fill="none">
  <path d="M24.543 4.96273L24.543 4.96276C26.2211 6.641 27.2595 8.95991 27.2595 11.5201C27.2595 14.08 26.2211 16.4 24.5429 18.0775C24.232 18.3883 23.8993 18.677 23.5472 18.9412C25.3144 19.6753 26.905 20.7476 28.2386 22.0772L28.2386 22.0773C30.8665 24.6992 32.493 28.3192 32.493 32.3139C32.493 33.13 31.8307 33.7921 31.0139 33.7921C30.1979 33.7921 29.5357 33.1299 29.5357 32.3139C29.5357 29.1307 28.2447 26.2509 26.1572 24.1688C24.0702 22.0875 21.1866 20.7983 18 20.7941H17.9857H17.9849H17.9712C14.7832 20.7983 11.8997 22.0875 9.81334 24.1688L9.81332 24.1688C7.72582 26.2509 6.43479 29.1307 6.43479 32.3139C6.43479 33.13 5.77254 33.7921 4.95583 33.7921C4.13966 33.7921 3.47754 33.13 3.47754 32.3139C3.47754 28.3192 5.10408 24.6992 7.73254 22.0773C9.065 20.7475 10.6557 19.6752 12.423 18.9411C12.0711 18.6769 11.7385 18.3883 11.4277 18.0774L24.543 4.96273ZM24.543 4.96273C22.8646 3.2847 20.5456 2.24609 17.9857 2.24609C15.4249 2.24609 13.1058 3.28468 11.4277 4.96275L11.4276 4.96279M24.543 4.96273L11.4276 4.96279M11.4276 4.96279C9.75012 6.64101 8.71167 8.95991 8.71167 11.5201C8.71167 14.08 9.75009 16.4 11.4277 18.0774L11.4276 4.96279ZM13.5188 7.05407L13.5188 7.05408C12.3757 8.19717 11.6682 9.77603 11.6682 11.5201C11.6682 13.2642 12.3757 14.843 13.5188 15.987C13.5188 15.987 13.5188 15.987 13.5189 15.9871M13.5188 7.05407L13.342 16.1638L13.5189 15.9871M13.5188 7.05407C14.6618 5.91097 16.2416 5.2033 17.9856 5.2033C19.7295 5.2033 21.3086 5.91095 22.4517 7.05407C23.5948 8.19716 24.3023 9.776 24.3023 11.5201C24.3023 13.2641 23.5948 14.843 22.4516 15.987C21.3119 17.1264 19.7379 17.8327 17.9995 17.8369L13.5188 7.05407ZM13.5189 15.9871C14.6584 17.1264 16.2324 17.8327 17.971 17.8369L13.5189 15.9871ZM27.0095 11.5201C27.0095 14.0111 25.9994 16.2682 24.3662 17.9006V5.13953C25.9993 6.77282 27.0095 9.0289 27.0095 11.5201ZM17.9848 17.8369L17.9714 17.8369H17.9991L17.9856 17.8369H17.9848Z" fill="white" stroke="white" stroke-width="0.5"/>
</svg>