<svg width="26" height="26" viewBox="0 0 26 26" fill="none" xmlns="http://www.w3.org/2000/svg">
<path d="M18.9583 2.16669C20.6036 2.16669 21.9375 3.50054 21.9375 5.14585V20.8542C21.9375 22.4995 20.6036 23.8334 18.9583 23.8334H7.04167C5.39635 23.8334 4.0625 22.4995 4.0625 20.8542V5.14585C4.0625 3.50054 5.39635 2.16669 7.04167 2.16669H18.9583ZM15.1667 19.7709H10.8333C10.6178 19.7709 10.4112 19.8565 10.2588 20.0088C10.1064 20.1612 10.0208 20.3679 10.0208 20.5834C10.0208 20.7988 10.1064 21.0055 10.2588 21.1579C10.4112 21.3103 10.6178 21.3959 10.8333 21.3959H15.1667C15.3822 21.3959 15.5888 21.3103 15.7412 21.1579C15.8936 21.0055 15.9792 20.7988 15.9792 20.5834C15.9792 20.3679 15.8936 20.1612 15.7412 20.0088C15.5888 19.8565 15.3822 19.7709 15.1667 19.7709ZM18.9583 3.79169H7.04167C6.86384 3.79169 6.68774 3.82671 6.52345 3.89477C6.35915 3.96282 6.20987 4.06257 6.08413 4.18831C5.95838 4.31406 5.85863 4.46334 5.79058 4.62764C5.72253 4.79193 5.6875 4.96802 5.6875 5.14585V17.3334H20.3125V5.14585C20.3125 4.96802 20.2775 4.79193 20.2094 4.62764C20.1414 4.46334 20.0416 4.31406 19.9159 4.18831C19.7901 4.06257 19.6408 3.96282 19.4766 3.89477C19.3123 3.82671 19.1362 3.79169 18.9583 3.79169Z" fill="#372300"/>
</svg>
