<svg width="22" height="22" viewBox="0 0 22 22" fill="none" xmlns="http://www.w3.org/2000/svg">
<g clip-path="url(#clip0_1232_2510)">
<path d="M0.773302 19.3842H6.7067V10.0914L5.071 8.9914L0.773302 12.5532V19.3842ZM8.0916 19.3842H14.0294V10.1552L11.165 12.4982L8.0883 10.8812V19.3842H8.0916ZM15.4187 9.0541V19.3842H21.3554V9.13L18.8232 5.885L15.4187 9.053V9.0541ZM1.7424 9.9781L4.9709 7.3601L11.1309 11.0011L18.4415 4.3021L18.5185 4.2251L19.7461 5.4351L21.7316 0L16.038 1.782L17.3987 3.113L17.3547 3.157L10.9307 9.064L4.8158 5.434L0.726002 8.778C0.647388 8.83965 0.581799 8.91631 0.533042 9.00351C0.484284 9.09071 0.453328 9.18672 0.441969 9.28598C0.430611 9.38524 0.439076 9.48577 0.466874 9.58173C0.494671 9.67769 0.541248 9.76718 0.603902 9.845L0.636902 9.878C0.914102 10.208 1.408 10.2531 1.7424 9.9792V9.9781ZM21.2256 20.4512H0.737002C0.539293 20.4618 0.35305 20.5473 0.216145 20.6904C0.0792409 20.8334 0.00195441 21.0232 2.06359e-06 21.2212C-0.000452823 21.4189 0.0743123 21.6094 0.209133 21.754C0.343954 21.8987 0.528737 21.9866 0.726002 22H21.2256C21.4323 21.9987 21.63 21.9156 21.7756 21.769C21.8476 21.6967 21.9045 21.6109 21.943 21.5165C21.9815 21.4221 22.0009 21.321 22 21.219C22.0013 21.1177 21.9822 21.0172 21.9438 20.9235C21.9055 20.8298 21.8486 20.7447 21.7767 20.6734C21.7044 20.6016 21.6185 20.545 21.5241 20.5069C21.4297 20.4687 21.3286 20.4498 21.2267 20.4512H21.2256Z" fill="#372300"/>
</g>
<defs>
<clipPath id="clip0_1232_2510">
<rect width="22" height="22" fill="white"/>
</clipPath>
</defs>
</svg>
