<svg xmlns="http://www.w3.org/2000/svg" width="36" height="36" viewBox="0 0 36 36" fill="none">
  <g clip-path="url(#clip0_6_2013)">
    <path d="M36 30.6C35.9856 31.2037 35.9254 31.8055 35.82 32.4H32.22C32.3538 31.8097 32.4143 31.2052 32.4 30.6C32.4009 28.7273 31.672 26.928 30.3681 25.5838C29.0642 24.2395 27.2879 23.4562 25.416 23.4C26.4496 25.3396 26.9934 27.5023 27 29.7C27.0021 30.6069 26.9116 31.5116 26.73 32.4H22.986C23.2431 31.5224 23.3823 30.6144 23.4 29.7C23.4 27.0744 22.357 24.5563 20.5004 22.6997C18.6438 20.8431 16.1257 19.8 13.5 19.8C10.8744 19.8 8.35629 20.8431 6.49968 22.6997C4.64307 24.5563 3.60003 27.0744 3.60003 29.7C3.61772 30.6144 3.75694 31.5224 4.01403 32.4H0.270033C0.0884816 31.5116 -0.00198643 30.6069 3.30744e-05 29.7C0.00283238 27.128 0.739336 24.6102 2.12308 22.4421C3.50682 20.274 5.48037 18.5457 7.81203 17.46C6.91094 16.5712 6.23069 15.4835 5.82585 14.2843C5.42101 13.085 5.30285 11.8076 5.48085 10.5544C5.65884 9.30127 6.12804 8.10727 6.85081 7.06819C7.57357 6.02911 8.52979 5.17388 9.64276 4.57108C10.7557 3.96828 11.9945 3.63469 13.2597 3.59708C14.5248 3.55947 15.7812 3.81888 16.928 4.3545C18.0748 4.89012 19.0802 5.68704 19.8634 6.68135C20.6466 7.67566 21.1859 8.83968 21.438 10.08C22.9284 9.14542 24.7093 8.78876 26.4447 9.07739C28.18 9.36603 29.7496 10.28 30.8572 11.6467C31.9647 13.0135 32.5336 14.7384 32.4564 16.4959C32.3792 18.2533 31.6612 19.9217 30.438 21.186C32.119 22.1183 33.5207 23.4823 34.4984 25.1371C35.4762 26.792 35.9946 28.6779 36 30.6ZM13.5 7.20005C12.61 7.20005 11.74 7.46397 11 7.95844C10.2599 8.4529 9.68317 9.15571 9.34258 9.97797C9.00198 10.8002 8.91287 11.705 9.0865 12.578C9.26013 13.4509 9.68872 14.2527 10.3181 14.882C10.9474 15.5114 11.7492 15.9399 12.6221 16.1136C13.495 16.2872 14.3998 16.1981 15.2221 15.8575C16.0444 15.5169 16.7472 14.9401 17.2416 14.2001C17.7361 13.4601 18 12.5901 18 11.7C18 11.1091 17.8836 10.5239 17.6575 9.97797C17.4313 9.43201 17.0999 8.93593 16.682 8.51807C16.2641 8.1002 15.7681 7.76874 15.2221 7.54259C14.6761 7.31644 14.091 7.20005 13.5 7.20005ZM25.2 12.6C24.488 12.6 23.792 12.8112 23.2 13.2068C22.608 13.6023 22.1465 14.1646 21.8741 14.8224C21.6016 15.4802 21.5303 16.204 21.6692 16.9024C21.8081 17.6007 22.151 18.2422 22.6544 18.7456C23.1579 19.2491 23.7994 19.592 24.4977 19.7309C25.196 19.8698 25.9199 19.7985 26.5777 19.526C27.2355 19.2535 27.7978 18.7921 28.1933 18.2001C28.5889 17.6081 28.8 16.9121 28.8 16.2C28.8 15.2453 28.4207 14.3296 27.7456 13.6545C27.0705 12.9793 26.1548 12.6 25.2 12.6Z" fill="white"/>
  </g>
  <defs>
    <clipPath id="clip0_6_2013">
      <rect width="36" height="36" fill="white"/>
    </clipPath>
  </defs>
</svg>