<svg xmlns="http://www.w3.org/2000/svg" width="40" height="40" viewBox="0 0 40 40" fill="none">
  <path d="M35.8333 3.33337H4.16667C3.25 3.33337 2.5 4.08337 2.5 5.00004V34.1667C2.5 35.0834 3.25 35.8334 4.16667 35.8334H35.8333C36.75 35.8334 37.5 35.0834 37.5 34.1667V5.00004C37.5 4.08337 36.75 3.33337 35.8333 3.33337ZM35 33.3334H5V5.83337H35V33.3334Z" fill="white"/>
  <path d="M32.5 29.5833H7.5V27.0833H32.5V29.5833ZM32.3333 10.4166L21.25 21.5C20.5833 22.1666 19.5833 22.1666 18.9167 21.5L18.3333 20.9166L30.5833 8.66663L32.3333 10.4166Z" fill="white"/>
  <path d="M15.7502 14.75L21.9168 20.9167L21.3335 21.5C20.6668 22.1667 19.6668 22.1667 19.0002 21.5L12.8335 15.3333L13.4168 14.75C14.0835 14.0833 15.0835 14.0833 15.7502 14.75Z" fill="white"/>
  <path d="M7.25 20.9167L13.4167 14.75C14.0833 14.0834 15.0833 14.0834 15.75 14.75L16.3333 15.3334L9 22.6667L7.25 20.9167ZM32.5 10V18.4167C32.5 19.0834 31.9167 19.6667 31.25 19.6667C30.5833 19.6667 30 19.0834 30 18.4167V8.33337H30.8333C31.75 8.33337 32.5 9.08337 32.5 10Z" fill="white"/>
  <path d="M32.5002 10.8334H22.8335C22.1668 10.8334 21.5835 10.25 21.5835 9.58337C21.5835 8.91671 22.1668 8.33337 22.8335 8.33337H30.8335C31.7502 8.33337 32.5002 9.08337 32.5002 10V10.8334Z" fill="white"/>
</svg>