<svg width="40" height="40" viewBox="0 0 40 40" fill="none" xmlns="http://www.w3.org/2000/svg">
<g filter="url(#filter0_di_4_2)">
<path d="M9.28832 21.4316C8.92246 21.4316 8.6083 21.2964 8.34584 21.026C8.08338 20.7556 7.95215 20.4374 7.95215 20.0716V18.2582C7.95215 17.8923 8.08338 17.5782 8.34584 17.3157C8.6083 17.0533 8.92246 16.922 9.28832 16.922H26.8017C26.5631 16.9857 26.3325 17.0692 26.1098 17.1726C25.8871 17.276 25.6882 17.439 25.5133 17.6617C25.0042 18.2343 24.4952 18.8507 23.9862 19.5109C23.4772 20.171 22.992 20.8112 22.5307 21.4316H9.28832ZM12.2708 15.395C11.905 15.395 11.5908 15.2598 11.3284 14.9894C11.0659 14.7189 10.9347 14.4008 10.9347 14.0349V12.3647C10.9347 11.9989 11.0659 11.6847 11.3284 11.4223C11.5908 11.1598 11.905 11.0286 12.2708 11.0286H30.4285C30.7943 11.0286 31.1124 11.1598 31.3829 11.4223C31.6533 11.6847 31.7885 11.9989 31.7885 12.3647V14.0349C31.7885 14.4008 31.6533 14.7189 31.3829 14.9894C31.1124 15.2598 30.7943 15.395 30.4285 15.395H12.2708ZM24.3202 25.8696V26.0605C24.3202 26.1559 24.3242 26.311 24.3322 26.5258C24.3401 26.7405 24.3441 27.0547 24.3441 27.4682H9.28832C8.92246 27.4682 8.6083 27.337 8.34584 27.0745C8.08338 26.8121 7.95215 26.49 7.95215 26.1082V24.3187C7.95215 23.9528 8.08338 23.6387 8.34584 23.3762C8.6083 23.1138 8.92246 22.9825 9.28832 22.9825H21.3377C21.29 23.0143 21.2463 23.0581 21.2065 23.1138C21.1667 23.1694 21.1309 23.2132 21.0991 23.245C20.94 23.4677 20.8446 23.7301 20.8128 24.0324C20.781 24.3346 20.8128 24.6249 20.9082 24.9033C21.0037 25.1816 21.1588 25.4163 21.3735 25.6071C21.5882 25.798 21.8547 25.8935 22.1728 25.8935H23.2943L24.3202 25.8696ZM31.4306 23.1973L31.7885 23.7938C31.8839 23.9528 31.9316 24.0801 31.9316 24.1755C31.9316 24.271 31.872 24.3386 31.7527 24.3783C31.6334 24.4181 31.4385 24.438 31.1681 24.438H29.8797C29.5297 24.438 29.2673 24.5255 29.0923 24.7005C28.9173 24.8754 28.8298 25.1061 28.8298 25.3924V27.7068C28.8298 27.9773 28.7105 28.2477 28.4719 28.5181C28.2333 28.7885 27.947 28.9237 27.6129 28.9237H26.6824C26.4438 28.9237 26.233 28.8322 26.0501 28.6493C25.8672 28.4664 25.7757 28.1443 25.7757 27.683C25.7757 27.4762 25.7797 27.345 25.7876 27.2893C25.7956 27.2336 25.7996 27.162 25.7996 27.0745C25.7996 26.9871 25.8036 26.8399 25.8115 26.6331C25.8195 26.4263 25.8234 26.0684 25.8234 25.5594C25.8234 25.1618 25.7558 24.8754 25.6206 24.7005C25.4854 24.5255 25.2428 24.438 24.8929 24.438H23.6044C23.2386 24.438 23.0079 24.3624 22.9125 24.2113C22.817 24.0602 22.8966 23.8256 23.1511 23.5074C23.3897 23.1893 23.6561 22.8195 23.9504 22.3979C24.2447 21.9764 24.5469 21.539 24.8571 21.0856C25.1673 20.6323 25.4695 20.1909 25.7638 19.7614C26.0581 19.3319 26.3404 18.9501 26.6108 18.6161C26.7222 18.4889 26.8653 18.3894 27.0403 18.3179C27.2153 18.2463 27.3982 18.2065 27.5891 18.1986C27.78 18.1906 27.9549 18.2105 28.114 18.2582C28.2731 18.3059 28.3924 18.3855 28.4719 18.4968C28.6628 18.8308 28.8815 19.2007 29.1281 19.6063C29.3746 20.0119 29.6331 20.4215 29.9035 20.8351C30.1739 21.2487 30.4404 21.6583 30.7028 22.0639C30.9653 22.4695 31.2079 22.8473 31.4306 23.1973Z" fill="url(#paint0_linear_4_2)"/>
</g>
<path d="M31.4305 23.1973L31.7884 23.7938C31.8838 23.9528 31.9316 24.0801 31.9316 24.1755C31.9316 24.271 31.8719 24.3386 31.7526 24.3783C31.6333 24.4181 31.4385 24.438 31.168 24.438H29.8796C29.5296 24.438 29.2672 24.5255 29.0922 24.7005C28.9172 24.8754 28.8297 25.1061 28.8297 25.3924V27.7068C28.8297 27.9773 28.7104 28.2477 28.4718 28.5181C28.2332 28.7885 27.9469 28.9237 27.6129 28.9237H26.6823C26.4437 28.9237 26.233 28.8322 26.05 28.6493C25.8671 28.4664 25.7756 28.1443 25.7756 27.683C25.7756 27.4762 25.7796 27.345 25.7876 27.2893C25.7955 27.2336 25.7995 27.162 25.7995 27.0745C25.7995 26.9871 25.8035 26.8399 25.8114 26.6331C25.8194 26.4263 25.8234 26.0684 25.8234 25.5594C25.8234 25.1618 25.7557 24.8754 25.6205 24.7005C25.4853 24.5255 25.2428 24.438 24.8928 24.438H23.6044C23.2385 24.438 23.0078 24.3624 22.9124 24.2113C22.817 24.0602 22.8965 23.8256 23.151 23.5074C23.3896 23.1893 23.6561 22.8195 23.9503 22.3979C24.2446 21.9764 24.5468 21.539 24.857 21.0856C25.1672 20.6323 25.4694 20.1909 25.7637 19.7614C26.058 19.3319 26.3403 18.9501 26.6107 18.6161C26.7221 18.4889 26.8652 18.3894 27.0402 18.3179C27.2152 18.2463 27.3981 18.2065 27.589 18.1986C27.7799 18.1906 27.9549 18.2105 28.1139 18.2582C28.273 18.3059 28.3923 18.3855 28.4718 18.4968C28.6627 18.8308 28.8814 19.2007 29.128 19.6063C29.3745 20.0119 29.633 20.4215 29.9034 20.8351C30.1739 21.2487 30.4403 21.6583 30.7028 22.0639C30.9652 22.4695 31.2078 22.8473 31.4305 23.1973Z" fill="url(#paint1_linear_4_2)"/>
<defs>
<filter id="filter0_di_4_2" x="4.93675" y="9.01829" width="30.0103" height="23.9259" filterUnits="userSpaceOnUse" color-interpolation-filters="sRGB">
<feFlood flood-opacity="0" result="BackgroundImageFix"/>
<feColorMatrix in="SourceAlpha" type="matrix" values="0 0 0 0 0 0 0 0 0 0 0 0 0 0 0 0 0 0 127 0" result="hardAlpha"/>
<feOffset dy="1.00513"/>
<feGaussianBlur stdDeviation="1.5077"/>
<feComposite in2="hardAlpha" operator="out"/>
<feColorMatrix type="matrix" values="0 0 0 0 0.890196 0 0 0 0 0.776471 0 0 0 0 0.388235 0 0 0 1 0"/>
<feBlend mode="normal" in2="BackgroundImageFix" result="effect1_dropShadow_4_2"/>
<feBlend mode="normal" in="SourceGraphic" in2="effect1_dropShadow_4_2" result="shape"/>
<feColorMatrix in="SourceAlpha" type="matrix" values="0 0 0 0 0 0 0 0 0 0 0 0 0 0 0 0 0 0 127 0" result="hardAlpha"/>
<feOffset/>
<feGaussianBlur stdDeviation="1.00513"/>
<feComposite in2="hardAlpha" operator="arithmetic" k2="-1" k3="1"/>
<feColorMatrix type="matrix" values="0 0 0 0 1 0 0 0 0 1 0 0 0 0 1 0 0 0 0.57 0"/>
<feBlend mode="normal" in2="shape" result="effect2_innerShadow_4_2"/>
</filter>
<linearGradient id="paint0_linear_4_2" x1="15.8634" y1="14.6076" x2="15.8634" y2="25.3447" gradientUnits="userSpaceOnUse">
<stop stop-color="white"/>
<stop offset="1" stop-color="#FFEDB8"/>
</linearGradient>
<linearGradient id="paint1_linear_4_2" x1="31.6477" y1="13.5851" x2="31.6477" y2="25.1742" gradientUnits="userSpaceOnUse">
<stop stop-color="#FAD933"/>
<stop offset="0.519231" stop-color="#EFAC40"/>
<stop offset="1" stop-color="#95600F"/>
</linearGradient>
</defs>
</svg>
