<svg width="24" height="24" viewBox="0 0 24 24" fill="none" xmlns="http://www.w3.org/2000/svg">
<g clip-path="url(#clip0_1232_392)">
<path d="M12 24C5.37277 24 0 18.6272 0 12C0 5.37277 5.37277 0 12 0C18.6272 0 24 5.37277 24 12C24 18.6272 18.6272 24 12 24ZM17.5385 11.0769H12.9231V6.46154C12.9231 6.21672 12.8258 5.98194 12.6527 5.80882C12.4796 5.63571 12.2448 5.53846 12 5.53846C11.7552 5.53846 11.5204 5.63571 11.3473 5.80882C11.1742 5.98194 11.0769 6.21672 11.0769 6.46154V11.0769H6.46154C6.21672 11.0769 5.98194 11.1742 5.80882 11.3473C5.63571 11.5204 5.53846 11.7552 5.53846 12C5.53846 12.2448 5.63571 12.4796 5.80882 12.6527C5.98194 12.8258 6.21672 12.9231 6.46154 12.9231H11.0769V17.5385C11.0769 17.7833 11.1742 18.0181 11.3473 18.1912C11.5204 18.3643 11.7552 18.4615 12 18.4615C12.2448 18.4615 12.4796 18.3643 12.6527 18.1912C12.8258 18.0181 12.9231 17.7833 12.9231 17.5385V12.9231H17.5385C17.7833 12.9231 18.0181 12.8258 18.1912 12.6527C18.3643 12.4796 18.4615 12.2448 18.4615 12C18.4615 11.7552 18.3643 11.5204 18.1912 11.3473C18.0181 11.1742 17.7833 11.0769 17.5385 11.0769Z" fill="black"/>
</g>
<defs>
<clipPath id="clip0_1232_392">
<rect width="24" height="24" fill="white"/>
</clipPath>
</defs>
</svg>
