<svg width="24" height="24" viewBox="0 0 24 24" fill="none" xmlns="http://www.w3.org/2000/svg">
<g clip-path="url(#clip0_1858_2320)">
<rect width="24" height="24" rx="12" fill="url(#paint0_linear_1858_2320)"/>
<path d="M12 24C5.37277 24 0 18.6272 0 12C0 5.37277 5.37277 0 12 0C18.6272 0 24 5.37277 24 12C24 18.6272 18.6272 24 12 24Z" fill="black"/>
<path d="M11.9898 6.42859L11.9993 6.43955L12.0101 6.42859L16.2857 10.7669L15.0939 11.9765L12.9251 9.77653V18.4286H11.2084V9.63955L8.90595 11.9765L7.71423 10.7669L11.9898 6.42859Z" fill="url(#paint1_linear_1858_2320)"/>
</g>
<defs>
<linearGradient id="paint0_linear_1858_2320" x1="2.33333" y1="8.9131e-08" x2="20" y2="24" gradientUnits="userSpaceOnUse">
<stop offset="0.005" stop-color="#FFF193"/>
<stop offset="1" stop-color="#EBA500"/>
</linearGradient>
<linearGradient id="paint1_linear_1858_2320" x1="8.54757" y1="18.4286" x2="17.7945" y2="9.45579" gradientUnits="userSpaceOnUse">
<stop offset="0.005" stop-color="#FFF193"/>
<stop offset="1" stop-color="#EBA500"/>
</linearGradient>
<clipPath id="clip0_1858_2320">
<rect width="24" height="24" rx="12" fill="white"/>
</clipPath>
</defs>
</svg>
